<svg xmlns="http://www.w3.org/2000/svg" width="1155.777" height="477.526" viewBox="0 0 1155.777 477.526">
  <path id="Trazado_19" data-name="Trazado 19" d="M464.271,293.991Q450.183,364.43,388,407.907t-148.65,43.478q-70.439,0-124.361-29.876a208.722,208.722,0,0,1-83.555-84.041Q1.8,283.3,1.8,212.379q0-71.41,29.633-125.818T114.992,3.006q53.922-29.147,121.446-29.147,66.552,0,118.288,27.69t80.154,77Q463.3,127.853,463.3,190.519q0,34.976-5.829,60.723H138.8q1.943,39.834,29.39,63.638t71.167,23.8q33.033,0,56.837-12.387t32.548-32.3Zm-143.306-133.1q-.972-34-25.989-53.922T231.581,87.047q-38.863,0-63.881,19.917t-26.961,53.922ZM993.387-26.141q72.867,0,118.531,46.635t45.664,123.389V438.269H1019.134V177.4q0-39.834-19.917-61.695t-50.521-21.86q-37.891,0-58.78,25.018T869.026,184.69V438.269H733.007V177.4q0-38.863-19.917-60.723T659.168,94.82q-35.948,0-56.351,25.018t-20.4,64.852V438.269H443.479V-10.6H571.727l5.829,41.777q20.889-26.718,54.651-42.02a171.566,171.566,0,0,1,71.653-15.3q47.607,0,85.984,21.374t57.323,57.808a145.109,145.109,0,0,1,58.78-58.537Q943.837-26.141,993.387-26.141Z" transform="translate(-1.805 26.141)"/>
</svg>
